<svg width="338" height="242" viewBox="0 0 338 242" fill="none" xmlns="http://www.w3.org/2000/svg">
<mask id="mask0" mask-type="alpha" maskUnits="userSpaceOnUse" x="0" y="0" width="136" height="229">
<path fill-rule="evenodd" clip-rule="evenodd" d="M18.2796 11.4054C18.2796 31.0663 23.2652 49.2063 35.6206 74.407C39.7391 82.771 46.7839 95.154 51.2275 101.78C54.5603 106.831 57.3443 111.21 58.3909 113.084C58.7397 113.708 58.8955 114.054 58.8142 114.054C58.5094 114.054 56.871 113.1 55.1492 111.906C55.0344 111.827 54.9193 111.746 54.8041 111.665C41.1481 102.16 27.9899 86.8342 14.0227 64.1584C13.7028 63.6391 13.3825 63.1159 13.0618 62.5889C11.3818 59.8283 9.68976 56.9615 7.98339 53.9858C3.97328 47.0339 0.396695 41.4941 0.179932 41.7114C-0.7955 42.689 2.34756 55.072 5.92415 64.305C13.5915 84.5077 26.1976 106.69 39.1537 124.257C48.907 137.481 58.8588 148.089 67.0512 153.268L67.0513 153.268C67.7371 153.695 68.3265 154.065 68.8239 154.384L68.8967 154.431C69.9038 155.079 70.5211 155.514 70.7881 155.803C70.8197 155.837 70.8465 155.869 70.8684 155.899C71.2043 156.363 70.394 156.366 68.6769 156.309C58.5975 156.309 45.2666 148.379 29.4429 133.172C22.7233 126.655 17.1958 121.767 17.1958 122.201C17.1958 124.156 26.0831 141.645 30.3099 147.836C44.2911 168.692 73.7708 192.698 113.113 215.617C119.074 219.093 126.553 223.655 129.696 225.719C132.381 227.483 134.83 228.77 135.688 228.972C108.73 195.383 90.2974 154.592 83.6953 109.92C66.8911 90.5578 50.203 66.2918 38.1383 44.4117C32.6837 34.5197 28.1742 25.1153 25.0261 16.8723C23.4802 12.8243 22.2626 9.05647 21.4227 5.64841C20.8537 3.36732 20.1627 1.33064 19.6242 0.45486C19.4447 0.162935 19.2821 0 19.1467 0C18.7131 0 18.2796 5.10529 18.2796 11.4054Z" fill="#00FFD1"/>
</mask>
<g mask="url(#mask0)">
<path d="M18.2796 11.4054C18.2796 31.0663 23.2652 49.2063 35.6206 74.407C39.7391 82.771 46.7839 95.154 51.2275 101.78C55.6712 108.515 59.1394 114.054 58.8142 114.054C58.4891 114.054 56.6466 112.968 54.8041 111.665C39.1972 100.802 24.2406 82.3365 7.98338 53.9858C3.97328 47.0339 0.39669 41.4941 0.17993 41.7113C-0.795498 42.689 2.34756 55.072 5.92414 64.305C19.3634 99.7162 47.9761 141.21 67.0512 153.268C71.9284 156.309 71.9284 156.418 68.6769 156.309C58.5975 156.309 45.2666 148.379 29.4429 133.172C22.7233 126.655 17.1958 121.767 17.1958 122.201C17.1958 124.156 26.0831 141.645 30.3099 147.836C44.2911 168.692 73.7708 192.698 113.113 215.617C119.074 219.093 126.553 223.655 129.696 225.719C132.839 227.783 135.657 229.195 135.982 228.978C136.198 228.652 134.464 224.416 132.08 219.636C122.976 201.062 117.449 185.963 110.295 159.785C102.709 132.195 101.3 129.153 88.8358 115.684C59.031 83.2055 28.1423 32.9129 21.4227 5.64841C20.664 2.60695 19.6886 -3.41237e-06 19.1467 -3.41237e-06C18.7131 -3.41237e-06 18.2796 5.10529 18.2796 11.4054Z" fill="white"/>
<path fill-rule="evenodd" clip-rule="evenodd" d="M115.584 178.042C113.869 172.525 112.136 166.522 110.295 159.785C102.709 132.195 101.3 129.153 88.8359 115.684C59.031 83.2055 28.1423 32.9129 21.4227 5.64841C20.664 2.60696 19.6886 0 19.1467 0C18.7132 0 18.2796 5.10529 18.2796 11.4054C18.2796 31.0663 23.2652 49.2063 35.6206 74.407C39.7391 82.771 46.7839 95.154 51.2275 101.78C55.6712 108.515 59.1394 114.054 58.8142 114.054C58.4891 114.054 56.6466 112.968 54.8041 111.665C40.8353 101.943 27.3875 86.1291 13.0618 62.5888C16.9257 85.3714 26.0673 106.358 39.1847 124.246C39.1744 124.25 39.164 124.253 39.1537 124.257C48.9071 137.481 58.8588 148.089 67.0512 153.268C67.7497 153.703 68.3481 154.079 68.8513 154.402C68.8532 154.401 68.8551 154.401 68.8569 154.401C68.8702 154.411 68.8835 154.421 68.8967 154.431C70.0234 155.156 70.6621 155.615 70.8684 155.899C84.2297 165.677 99.3151 173.238 115.584 178.042Z" fill="white"/>
<path fill-rule="evenodd" clip-rule="evenodd" d="M111.705 164.873C69.4178 140.725 40.3694 96.0447 38.1382 44.4116C51.4336 68.5233 70.3433 95.5324 88.8358 115.684C101.3 129.153 102.709 132.194 110.295 159.785C110.772 161.528 111.241 163.223 111.705 164.873Z" fill="white"/>
</g>
<mask id="mask1" mask-type="alpha" maskUnits="userSpaceOnUse" x="202" y="0" width="136" height="229">
<path fill-rule="evenodd" clip-rule="evenodd" d="M319.72 11.4054C319.72 31.0663 314.735 49.2063 302.379 74.407C298.261 82.771 291.216 95.154 286.772 101.78C283.44 106.831 280.656 111.21 279.609 113.084C279.26 113.708 279.104 114.054 279.186 114.054C279.491 114.054 281.129 113.1 282.851 111.906C282.966 111.827 283.081 111.746 283.196 111.665C296.852 102.16 310.01 86.8342 323.977 64.1584C324.297 63.6391 324.617 63.1159 324.938 62.5889C326.618 59.8283 328.31 56.9615 330.017 53.9858C334.027 47.0339 337.603 41.4941 337.82 41.7114C338.796 42.689 335.652 55.072 332.076 64.305C324.409 84.5077 311.802 106.69 298.846 124.257C289.093 137.481 279.141 148.089 270.949 153.268L270.949 153.268C270.263 153.695 269.674 154.065 269.176 154.384L269.103 154.431C268.096 155.079 267.479 155.514 267.212 155.803C267.18 155.837 267.154 155.869 267.132 155.899C266.796 156.363 267.606 156.366 269.323 156.309C279.403 156.309 292.733 148.379 308.557 133.172C315.277 126.655 320.804 121.767 320.804 122.201C320.804 124.156 311.917 141.645 307.69 147.836C293.709 168.692 264.229 192.698 224.887 215.617C218.926 219.093 211.447 223.655 208.304 225.719C205.619 227.483 203.17 228.77 202.312 228.972C229.27 195.383 247.703 154.592 254.305 109.92C271.109 90.5578 287.797 66.2918 299.862 44.4117C305.316 34.5197 309.826 25.1153 312.974 16.8723C314.52 12.8243 315.737 9.05647 316.577 5.64841C317.146 3.36732 317.837 1.33064 318.376 0.45486C318.555 0.162935 318.718 0 318.853 0C319.287 0 319.72 5.10529 319.72 11.4054Z" fill="#00FFD1"/>
</mask>
<g mask="url(#mask1)">
<path d="M319.72 11.4054C319.72 31.0663 314.735 49.2063 302.379 74.407C298.261 82.771 291.216 95.154 286.772 101.78C282.329 108.515 278.861 114.054 279.186 114.054C279.511 114.054 281.353 112.968 283.196 111.665C298.803 100.802 313.759 82.3365 330.017 53.9858C334.027 47.0339 337.603 41.4941 337.82 41.7113C338.795 42.689 335.652 55.072 332.076 64.305C318.637 99.7162 290.024 141.21 270.949 153.268C266.072 156.309 266.072 156.418 269.323 156.309C279.403 156.309 292.733 148.379 308.557 133.172C315.277 126.655 320.804 121.767 320.804 122.201C320.804 124.156 311.917 141.645 307.69 147.836C293.709 168.692 264.229 192.698 224.887 215.617C218.926 219.093 211.447 223.655 208.304 225.719C205.161 227.783 202.343 229.195 202.018 228.978C201.802 228.652 203.536 224.416 205.92 219.636C215.024 201.062 220.551 185.963 227.705 159.785C235.291 132.195 236.7 129.153 249.164 115.684C278.969 83.2055 309.858 32.9129 316.577 5.64841C317.336 2.60695 318.311 -3.41237e-06 318.853 -3.41237e-06C319.287 -3.41237e-06 319.72 5.10529 319.72 11.4054Z" fill="white"/>
<path fill-rule="evenodd" clip-rule="evenodd" d="M222.416 178.042C224.131 172.525 225.864 166.522 227.705 159.785C235.291 132.195 236.7 129.153 249.164 115.684C278.969 83.2055 309.858 32.9129 316.577 5.64841C317.336 2.60696 318.311 0 318.853 0C319.287 0 319.72 5.10529 319.72 11.4054C319.72 31.0663 314.735 49.2063 302.379 74.407C298.261 82.771 291.216 95.154 286.772 101.78C282.329 108.515 278.861 114.054 279.186 114.054C279.511 114.054 281.353 112.968 283.196 111.665C297.165 101.943 310.613 86.1291 324.938 62.5888C321.074 85.3714 311.933 106.358 298.815 124.246C298.826 124.25 298.836 124.253 298.846 124.257C289.093 137.481 279.141 148.089 270.949 153.268C270.25 153.703 269.652 154.079 269.149 154.402C269.147 154.401 269.145 154.401 269.143 154.401C269.13 154.411 269.117 154.421 269.103 154.431C267.977 155.156 267.338 155.615 267.132 155.899C253.77 165.677 238.685 173.238 222.416 178.042Z" fill="white"/>
<path fill-rule="evenodd" clip-rule="evenodd" d="M226.295 164.873C268.582 140.725 297.631 96.0447 299.862 44.4116C286.566 68.5233 267.657 95.5324 249.164 115.684C236.7 129.153 235.291 132.194 227.705 159.785C227.228 161.528 226.759 163.223 226.295 164.873Z" fill="white"/>
</g>
<path fill-rule="evenodd" clip-rule="evenodd" d="M169 62C151.951 70.1255 132.88 74.6721 112.75 74.6721C106.423 74.6721 100.2 74.2229 94.1121 73.3546C94.0376 75.6658 94 77.9863 94 80.3156C94 145.19 123.138 203.236 169 242C214.862 203.236 244 145.19 244 80.3156C244 77.9863 243.962 75.6658 243.888 73.3546C237.8 74.2229 231.577 74.6721 225.25 74.6721C205.12 74.6721 186.049 70.1255 169 62ZM169.625 154.935C183.777 154.935 195.25 143.425 195.25 129.226C195.25 115.027 183.777 103.517 169.625 103.517C155.473 103.517 144 115.027 144 129.226C144 143.425 155.473 154.935 169.625 154.935Z" fill="white"/>
</svg>
