<svg width="445" height="319" viewBox="0 0 445 319" fill="none" xmlns="http://www.w3.org/2000/svg">
<mask id="mask0" mask-type="alpha" maskUnits="userSpaceOnUse" x="0" y="0" width="179" height="302">
<path fill-rule="evenodd" clip-rule="evenodd" d="M24.0664 15.016C24.0664 20.7345 24.3867 26.3552 25.0612 32C27.44 51.9068 34.2238 72.1132 46.897 97.9618C52.3192 108.974 61.5942 125.277 67.4445 134C71.8323 140.65 75.4977 146.415 76.8755 148.882C77.3348 149.705 77.5399 150.161 77.4329 150.161C77.0316 150.161 74.8745 148.904 72.6077 147.332C72.4566 147.228 72.305 147.122 72.1534 147.014C54.1742 134.501 36.8506 114.323 18.4618 84.4689C18.0407 83.7852 17.619 83.0964 17.1967 82.4025C14.9849 78.768 12.7572 74.9937 10.5107 71.076C5.23109 61.9233 0.522275 54.6298 0.236893 54.9158C-1.04733 56.2029 3.09073 72.5061 7.79954 84.6619C17.8941 111.26 34.4909 140.465 51.5485 163.593C64.3895 181.003 77.4916 194.969 88.2775 201.787L88.2776 201.787C89.1805 202.35 89.9565 202.837 90.6114 203.257L90.7072 203.319C92.0331 204.172 92.8458 204.745 93.1973 205.125C93.8792 205.862 92.8258 205.872 90.4178 205.791C77.1475 205.791 59.5965 195.352 38.7636 175.33C29.9167 166.75 22.6394 160.314 22.6394 160.886C22.6394 163.46 34.3401 186.485 39.9051 194.637C58.3123 222.095 97.1243 253.7 148.921 283.875C156.769 288.451 166.615 294.458 170.753 297.175C174.289 299.497 177.512 301.192 178.643 301.458C143.151 257.235 118.883 203.53 110.191 144.717C88.0667 119.226 66.0957 87.2776 50.2116 58.471C43.0304 45.4475 37.0932 33.066 32.9486 22.2135C30.9133 16.8841 29.3103 11.9235 28.2044 7.43652C27.2105 3.45177 25.9339 0.0335021 25.2184 0.000245605L25.2079 0C24.6371 0 24.0664 6.72146 24.0664 15.016Z" fill="#00FFD1"/>
</mask>
<g mask="url(#mask0)">
<path d="M24.0664 15.0161C24.0664 40.9009 30.6302 64.7836 46.897 97.9619C52.3192 108.974 61.5942 125.277 67.4445 134C73.2949 142.867 77.861 150.161 77.4329 150.161C77.0049 150.161 74.5791 148.73 72.1533 147.014C51.6058 132.713 31.9144 108.402 10.5107 71.076C5.23109 61.9234 0.522269 54.6299 0.236893 54.9159C-1.04734 56.203 3.09073 72.5061 7.79954 84.662C25.4933 131.283 63.1638 185.913 88.2775 201.787C94.6986 205.791 94.6986 205.934 90.4178 205.791C77.1475 205.791 59.5965 195.352 38.7636 175.33C29.9167 166.75 22.6394 160.314 22.6394 160.886C22.6394 163.46 34.3402 186.485 39.9051 194.637C58.3123 222.095 97.1243 253.7 148.921 283.875C156.769 288.451 166.615 294.458 170.753 297.175C174.891 299.892 178.601 301.751 179.029 301.465C179.315 301.036 177.031 295.459 173.892 289.166C161.906 264.712 154.629 244.833 145.211 210.368C135.223 174.043 133.368 170.039 116.958 152.306C77.7183 109.546 37.0513 43.3321 28.2044 7.43659C27.2056 3.4323 25.9213 6.87496e-05 25.2079 6.87496e-05C24.6371 6.87496e-05 24.0664 6.72153 24.0664 15.0161Z" fill="url(#paint0_linear)"/>
<path fill-rule="evenodd" clip-rule="evenodd" d="M152.174 234.405C149.917 227.141 147.635 219.237 145.211 210.368C135.223 174.043 133.368 170.039 116.958 152.306C77.7183 109.546 37.0513 43.332 28.2044 7.43652C27.2056 3.43224 25.9214 0 25.2079 0C24.6371 0 24.0664 6.72146 24.0664 15.016C24.0664 40.9009 30.6302 64.7835 46.897 97.9618C52.3193 108.974 61.5942 125.277 67.4445 134C73.2949 142.867 77.861 150.16 77.4329 150.16C77.0049 150.16 74.5791 148.73 72.1534 147.014C53.7625 134.214 36.0575 113.395 17.1967 82.4025C22.2838 112.397 34.3193 140.027 51.5894 163.579C51.5757 163.583 51.5621 163.588 51.5485 163.593C64.3895 181.003 77.4916 194.969 88.2775 201.787C89.1971 202.361 89.985 202.855 90.6475 203.28C90.6499 203.28 90.6524 203.28 90.6548 203.279C90.6723 203.292 90.6898 203.306 90.7072 203.319C92.1905 204.273 93.0314 204.877 93.303 205.252C110.894 218.125 130.755 228.08 152.174 234.405Z" fill="url(#paint1_linear)"/>
<path fill-rule="evenodd" clip-rule="evenodd" d="M147.067 217.066C91.3933 185.274 53.1491 126.449 50.2116 58.4711C67.7158 90.2157 92.6117 125.775 116.958 152.306C133.368 170.039 135.223 174.043 145.211 210.368C145.839 212.663 146.456 214.894 147.067 217.066Z" fill="url(#paint2_linear)"/>
</g>
<mask id="mask1" mask-type="alpha" maskUnits="userSpaceOnUse" x="266" y="0" width="179" height="302">
<path fill-rule="evenodd" clip-rule="evenodd" d="M420.934 15.016C420.934 20.7345 420.613 26.3552 419.939 32C417.56 51.9068 410.776 72.1132 398.103 97.9618C392.681 108.974 383.406 125.277 377.555 134C373.168 140.65 369.502 146.415 368.124 148.882C367.665 149.705 367.46 150.161 367.567 150.161C367.968 150.161 370.125 148.904 372.392 147.332C372.543 147.228 372.695 147.122 372.847 147.014C390.826 134.501 408.149 114.323 426.538 84.4689C426.959 83.7852 427.381 83.0964 427.803 82.4025C430.015 78.768 432.243 74.9937 434.489 71.076C439.769 61.9233 444.478 54.6298 444.763 54.9158C446.047 56.2029 441.909 72.5061 437.2 84.6619C427.106 111.26 410.509 140.465 393.451 163.593C380.611 181.003 367.508 194.969 356.723 201.787L356.722 201.787C355.819 202.35 355.044 202.837 354.389 203.257L354.293 203.319C352.967 204.172 352.154 204.745 351.803 205.125C351.121 205.862 352.174 205.872 354.582 205.791C367.852 205.791 385.403 195.352 406.236 175.33C415.083 166.75 422.361 160.314 422.361 160.886C422.361 163.46 410.66 186.485 405.095 194.637C386.688 222.095 347.876 253.7 296.079 283.875C288.231 288.451 278.385 294.458 274.247 297.175C270.711 299.497 267.488 301.192 266.357 301.458C301.849 257.235 326.117 203.53 334.809 144.717C356.933 119.226 378.904 87.2777 394.788 58.471C401.97 45.4475 407.907 33.066 412.051 22.2135C414.087 16.8841 415.69 11.9235 416.796 7.43652C417.79 3.44983 419.067 0.0301614 419.783 0.000199268L419.792 0C420.363 0 420.934 6.72146 420.934 15.016Z" fill="#00FFD1"/>
</mask>
<g mask="url(#mask1)">
<path d="M420.934 15.0161C420.934 40.9009 414.37 64.7836 398.103 97.9619C392.681 108.974 383.406 125.277 377.555 134C371.705 142.867 367.139 150.161 367.567 150.161C367.995 150.161 370.421 148.73 372.847 147.014C393.394 132.713 413.086 108.402 434.489 71.076C439.769 61.9234 444.478 54.6299 444.763 54.9159C446.047 56.203 441.909 72.5061 437.2 84.662C419.507 131.283 381.836 185.913 356.723 201.787C350.301 205.791 350.301 205.934 354.582 205.791C367.852 205.791 385.403 195.352 406.236 175.33C415.083 166.75 422.361 160.314 422.361 160.886C422.361 163.46 410.66 186.485 405.095 194.637C386.688 222.095 347.876 253.7 296.079 283.875C288.231 288.451 278.385 294.458 274.247 297.175C270.109 299.892 266.399 301.751 265.971 301.465C265.685 301.036 267.969 295.459 271.108 289.166C283.094 264.712 290.371 244.833 299.789 210.368C309.777 174.043 311.632 170.039 328.042 152.306C367.282 109.546 407.949 43.3321 416.796 7.43659C417.794 3.4323 419.079 6.87496e-05 419.792 6.87496e-05C420.363 6.87496e-05 420.934 6.72153 420.934 15.0161Z" fill="url(#paint3_linear)"/>
<path fill-rule="evenodd" clip-rule="evenodd" d="M292.826 234.405C295.083 227.141 297.365 219.237 299.789 210.368C309.777 174.043 311.632 170.039 328.042 152.306C367.282 109.546 407.949 43.332 416.796 7.43652C417.794 3.43224 419.079 0 419.792 0C420.363 0 420.934 6.72146 420.934 15.016C420.934 40.9009 414.37 64.7835 398.103 97.9618C392.681 108.974 383.406 125.277 377.555 134C371.705 142.867 367.139 150.16 367.567 150.16C367.995 150.16 370.421 148.73 372.847 147.014C391.237 134.214 408.943 113.395 427.803 82.4025C422.716 112.397 410.681 140.027 393.411 163.579C393.424 163.583 393.438 163.588 393.451 163.593C380.611 181.003 367.508 194.969 356.722 201.787C355.803 202.361 355.015 202.855 354.353 203.28C354.35 203.28 354.348 203.28 354.345 203.279C354.328 203.292 354.31 203.305 354.293 203.319C352.809 204.273 351.968 204.877 351.697 205.252C334.106 218.125 314.245 228.08 292.826 234.405Z" fill="url(#paint4_linear)"/>
<path fill-rule="evenodd" clip-rule="evenodd" d="M297.933 217.066C353.607 185.274 391.851 126.449 394.788 58.4711C377.284 90.2157 352.388 125.775 328.042 152.306C311.632 170.039 309.777 174.043 299.789 210.368C299.161 212.663 298.544 214.894 297.933 217.066Z" fill="url(#paint5_linear)"/>
</g>
<path fill-rule="evenodd" clip-rule="evenodd" d="M222.5 81.6273C200.054 92.3251 174.946 98.311 148.443 98.311C140.113 98.311 131.92 97.7196 123.905 96.5764C123.807 99.6192 123.757 102.674 123.757 105.741C123.757 191.153 162.12 267.575 222.5 318.61C282.88 267.575 321.243 191.153 321.243 105.741C321.243 102.674 321.193 99.6192 321.095 96.5764C313.08 97.7196 304.887 98.311 296.557 98.311C270.055 98.311 244.946 92.3251 222.5 81.6273ZM223.323 203.983C241.955 203.983 257.06 188.828 257.06 170.135C257.06 151.441 241.955 136.287 223.323 136.287C204.69 136.287 189.586 151.441 189.586 170.135C189.586 188.828 204.69 203.983 223.323 203.983Z" fill="white"/>
<path d="M156.998 62.96C153.638 62.96 150.625 62.4267 147.958 61.36C145.292 60.24 142.998 58.5067 141.078 56.16C139.212 53.8133 137.772 50.8267 136.758 47.2C135.798 43.52 135.318 39.1467 135.318 34.08C135.318 29.0133 135.798 24.6667 136.758 21.04C137.772 17.36 139.212 14.3467 141.078 12C142.998 9.65333 145.292 7.94666 147.958 6.88C150.625 5.76 153.638 5.2 156.998 5.2C160.358 5.2 163.372 5.76 166.038 6.88C168.705 7.94666 170.972 9.65333 172.838 12C174.758 14.3467 176.198 17.36 177.158 21.04C178.172 24.6667 178.678 29.0133 178.678 34.08C178.678 39.1467 178.172 43.52 177.158 47.2C176.198 50.8267 174.758 53.8133 172.838 56.16C170.972 58.5067 168.705 60.24 166.038 61.36C163.372 62.4267 160.358 62.96 156.998 62.96ZM156.998 55.44C160.998 55.44 164.092 54.16 166.278 51.6C168.465 48.9867 169.558 45.3867 169.558 40.8V27.36C169.558 22.7733 168.465 19.2 166.278 16.64C164.092 14.0267 160.998 12.72 156.998 12.72C152.998 12.72 149.905 14.0267 147.718 16.64C145.532 19.2 144.438 22.7733 144.438 27.36V40.8C144.438 45.3867 145.532 48.9867 147.718 51.6C149.905 54.16 152.998 55.44 156.998 55.44ZM204.085 62.96C199.925 62.96 196.298 62.1867 193.205 60.64C190.165 59.04 187.551 56.7467 185.365 53.76L191.205 48.4C192.858 50.6933 194.751 52.4533 196.885 53.68C199.018 54.9067 201.445 55.52 204.165 55.52C210.778 55.52 214.085 52.48 214.085 46.4C214.085 43.9467 213.498 42.08 212.325 40.8C211.151 39.4667 209.125 38.4533 206.245 37.76L201.685 36.8C196.671 35.68 192.965 33.8933 190.565 31.44C188.218 28.9333 187.045 25.44 187.045 20.96C187.045 15.7867 188.591 11.8667 191.685 9.2C194.831 6.53333 199.205 5.2 204.805 5.2C208.805 5.2 212.165 5.89333 214.885 7.28C217.658 8.61333 220.058 10.72 222.085 13.6L216.245 18.72C214.805 16.6933 213.178 15.1733 211.365 14.16C209.605 13.1467 207.365 12.64 204.645 12.64C201.605 12.64 199.311 13.28 197.765 14.56C196.271 15.7867 195.525 17.84 195.525 20.72C195.525 23.0667 196.111 24.8533 197.285 26.08C198.511 27.2533 200.485 28.16 203.205 28.8L207.765 29.84C210.431 30.4267 212.698 31.1733 214.565 32.08C216.431 32.9333 217.951 34 219.125 35.28C220.351 36.56 221.231 38.08 221.765 39.84C222.298 41.5467 222.565 43.5467 222.565 45.84C222.565 51.44 220.938 55.7067 217.685 58.64C214.485 61.52 209.951 62.96 204.085 62.96ZM232.012 62V6.16H264.412V13.6H240.492V29.92H262.092V37.28H240.492V54.56H264.412V62H232.012ZM293.782 62.96C290.529 62.96 287.596 62.4267 284.982 61.36C282.422 60.24 280.209 58.5067 278.342 56.16C276.529 53.8133 275.116 50.8267 274.102 47.2C273.142 43.52 272.662 39.1467 272.662 34.08C272.662 29.0133 273.142 24.6667 274.102 21.04C275.116 17.36 276.529 14.3467 278.342 12C280.209 9.65333 282.422 7.94666 284.982 6.88C287.596 5.76 290.529 5.2 293.782 5.2C298.529 5.2 302.316 6.24 305.142 8.32C308.022 10.3467 310.316 13.4133 312.022 17.52L304.822 21.52C303.862 18.3733 302.502 16.1067 300.742 14.72C299.036 13.3333 296.716 12.64 293.782 12.64C289.996 12.64 287.036 13.9467 284.902 16.56C282.822 19.1733 281.782 22.7733 281.782 27.36V40.8C281.782 45.3867 282.822 48.9867 284.902 51.6C287.036 54.2133 289.996 55.52 293.782 55.52C296.769 55.52 299.169 54.7733 300.982 53.28C302.849 51.7867 304.289 49.3867 305.302 46.08L312.342 50.24C310.582 54.3467 308.236 57.4933 305.302 59.68C302.369 61.8667 298.529 62.96 293.782 62.96Z" fill="white"/>
<defs>
<linearGradient id="paint0_linear" x1="89.5266" y1="301.494" x2="89.5266" y2="6.87496e-05" gradientUnits="userSpaceOnUse">
<stop stop-color="#004B8D"/>
<stop offset="1" stop-color="#004B8D" stop-opacity="0"/>
</linearGradient>
<linearGradient id="paint1_linear" x1="84.6851" y1="0" x2="84.6851" y2="234.405" gradientUnits="userSpaceOnUse">
<stop stop-color="#004B8D"/>
<stop offset="1" stop-color="#004B8D" stop-opacity="0"/>
</linearGradient>
<linearGradient id="paint2_linear" x1="98.6391" y1="58.4711" x2="98.6391" y2="217.066" gradientUnits="userSpaceOnUse">
<stop stop-color="#004B8D"/>
<stop offset="1" stop-color="#004B8D" stop-opacity="0"/>
</linearGradient>
<linearGradient id="paint3_linear" x1="355.473" y1="301.494" x2="355.473" y2="6.87496e-05" gradientUnits="userSpaceOnUse">
<stop stop-color="#004B8D"/>
<stop offset="1" stop-color="#004B8D" stop-opacity="0"/>
</linearGradient>
<linearGradient id="paint4_linear" x1="360.315" y1="0" x2="360.315" y2="234.405" gradientUnits="userSpaceOnUse">
<stop stop-color="#004B8D"/>
<stop offset="1" stop-color="#004B8D" stop-opacity="0"/>
</linearGradient>
<linearGradient id="paint5_linear" x1="346.361" y1="58.4711" x2="346.361" y2="217.066" gradientUnits="userSpaceOnUse">
<stop stop-color="#004B8D"/>
<stop offset="1" stop-color="#004B8D" stop-opacity="0"/>
</linearGradient>
</defs>
</svg>
