<svg width="338" height="329" viewBox="0 0 338 329" fill="none" xmlns="http://www.w3.org/2000/svg">
<path d="M59.6273 296.36C58.3673 296.36 57.2373 296.16 56.2373 295.76C55.2373 295.34 54.3773 294.69 53.6573 293.81C52.9573 292.93 52.4173 291.81 52.0373 290.45C51.6773 289.07 51.4973 287.43 51.4973 285.53C51.4973 283.63 51.6773 282 52.0373 280.64C52.4173 279.26 52.9573 278.13 53.6573 277.25C54.3773 276.37 55.2373 275.73 56.2373 275.33C57.2373 274.91 58.3673 274.7 59.6273 274.7C60.8873 274.7 62.0173 274.91 63.0173 275.33C64.0173 275.73 64.8673 276.37 65.5673 277.25C66.2873 278.13 66.8273 279.26 67.1873 280.64C67.5673 282 67.7573 283.63 67.7573 285.53C67.7573 287.43 67.5673 289.07 67.1873 290.45C66.8273 291.81 66.2873 292.93 65.5673 293.81C64.8673 294.69 64.0173 295.34 63.0173 295.76C62.0173 296.16 60.8873 296.36 59.6273 296.36ZM59.6273 293.54C61.1273 293.54 62.2873 293.06 63.1073 292.1C63.9273 291.12 64.3373 289.77 64.3373 288.05V283.01C64.3373 281.29 63.9273 279.95 63.1073 278.99C62.2873 278.01 61.1273 277.52 59.6273 277.52C58.1273 277.52 56.9673 278.01 56.1473 278.99C55.3273 279.95 54.9173 281.29 54.9173 283.01V288.05C54.9173 289.77 55.3273 291.12 56.1473 292.1C56.9673 293.06 58.1273 293.54 59.6273 293.54ZM77.2847 296.36C75.7247 296.36 74.3647 296.07 73.2047 295.49C72.0647 294.89 71.0847 294.03 70.2647 292.91L72.4547 290.9C73.0747 291.76 73.7847 292.42 74.5847 292.88C75.3847 293.34 76.2947 293.57 77.3147 293.57C79.7947 293.57 81.0347 292.43 81.0347 290.15C81.0347 289.23 80.8147 288.53 80.3747 288.05C79.9347 287.55 79.1747 287.17 78.0947 286.91L76.3847 286.55C74.5047 286.13 73.1147 285.46 72.2147 284.54C71.3347 283.6 70.8947 282.29 70.8947 280.61C70.8947 278.67 71.4747 277.2 72.6347 276.2C73.8147 275.2 75.4547 274.7 77.5547 274.7C79.0547 274.7 80.3147 274.96 81.3347 275.48C82.3747 275.98 83.2747 276.77 84.0347 277.85L81.8447 279.77C81.3047 279.01 80.6947 278.44 80.0147 278.06C79.3547 277.68 78.5147 277.49 77.4947 277.49C76.3547 277.49 75.4947 277.73 74.9147 278.21C74.3547 278.67 74.0747 279.44 74.0747 280.52C74.0747 281.4 74.2947 282.07 74.7347 282.53C75.1947 282.97 75.9347 283.31 76.9547 283.55L78.6647 283.94C79.6647 284.16 80.5147 284.44 81.2147 284.78C81.9147 285.1 82.4847 285.5 82.9247 285.98C83.3847 286.46 83.7147 287.03 83.9147 287.69C84.1147 288.33 84.2147 289.08 84.2147 289.94C84.2147 292.04 83.6047 293.64 82.3847 294.74C81.1847 295.82 79.4847 296.36 77.2847 296.36ZM87.7573 296V275.06H96.0373C97.8373 275.06 99.1873 275.6 100.087 276.68C101.007 277.74 101.467 279.28 101.467 281.3C101.467 283.32 101.007 284.87 100.087 285.95C99.1873 287.01 97.8373 287.54 96.0373 287.54H90.9373V296H87.7573ZM90.9373 284.72H95.7673C96.5273 284.72 97.0973 284.53 97.4773 284.15C97.8773 283.75 98.0773 283.12 98.0773 282.26V280.34C98.0773 279.48 97.8773 278.86 97.4773 278.48C97.0973 278.08 96.5273 277.88 95.7673 277.88H90.9373V284.72ZM107.988 296H104.808V275.06H113.088C114.888 275.06 116.238 275.6 117.138 276.68C118.058 277.74 118.518 279.27 118.518 281.27C118.518 282.89 118.218 284.2 117.618 285.2C117.018 286.2 116.118 286.87 114.918 287.21L118.908 296H115.368L111.738 287.45H107.988V296ZM112.818 284.78C113.578 284.78 114.148 284.59 114.528 284.21C114.928 283.81 115.128 283.17 115.128 282.29V280.34C115.128 279.46 114.928 278.83 114.528 278.45C114.148 278.05 113.578 277.85 112.818 277.85H107.988V284.78H112.818ZM122.562 296V275.06H134.712V277.85H125.742V283.97H133.842V286.73H125.742V293.21H134.712V296H122.562ZM142.822 296V287.9L136.342 275.06H139.912L144.262 284.42H144.652L148.942 275.06H152.452L146.002 287.9V296H142.822ZM167.021 296.36C165.461 296.36 164.101 296.07 162.941 295.49C161.801 294.89 160.821 294.03 160.001 292.91L162.191 290.9C162.811 291.76 163.521 292.42 164.321 292.88C165.121 293.34 166.031 293.57 167.051 293.57C169.531 293.57 170.771 292.43 170.771 290.15C170.771 289.23 170.551 288.53 170.111 288.05C169.671 287.55 168.911 287.17 167.831 286.91L166.121 286.55C164.241 286.13 162.851 285.46 161.951 284.54C161.071 283.6 160.631 282.29 160.631 280.61C160.631 278.67 161.211 277.2 162.371 276.2C163.551 275.2 165.191 274.7 167.291 274.7C168.791 274.7 170.051 274.96 171.071 275.48C172.111 275.98 173.011 276.77 173.771 277.85L171.581 279.77C171.041 279.01 170.431 278.44 169.751 278.06C169.091 277.68 168.251 277.49 167.231 277.49C166.091 277.49 165.231 277.73 164.651 278.21C164.091 278.67 163.811 279.44 163.811 280.52C163.811 281.4 164.031 282.07 164.471 282.53C164.931 282.97 165.671 283.31 166.691 283.55L168.401 283.94C169.401 284.16 170.251 284.44 170.951 284.78C171.651 285.1 172.221 285.5 172.661 285.98C173.121 286.46 173.451 287.03 173.651 287.69C173.851 288.33 173.951 289.08 173.951 289.94C173.951 292.04 173.341 293.64 172.121 294.74C170.921 295.82 169.221 296.36 167.021 296.36ZM177.494 296V275.06H189.644V277.85H180.674V283.97H188.774V286.73H180.674V293.21H189.644V296H177.494ZM200.658 296.36C199.438 296.36 198.338 296.16 197.358 295.76C196.398 295.34 195.568 294.69 194.868 293.81C194.188 292.93 193.658 291.81 193.278 290.45C192.918 289.07 192.738 287.43 192.738 285.53C192.738 283.63 192.918 282 193.278 280.64C193.658 279.26 194.188 278.13 194.868 277.25C195.568 276.37 196.398 275.73 197.358 275.33C198.338 274.91 199.438 274.7 200.658 274.7C202.438 274.7 203.858 275.09 204.918 275.87C205.998 276.63 206.858 277.78 207.498 279.32L204.798 280.82C204.438 279.64 203.928 278.79 203.268 278.27C202.628 277.75 201.758 277.49 200.658 277.49C199.238 277.49 198.128 277.98 197.328 278.96C196.548 279.94 196.158 281.29 196.158 283.01V288.05C196.158 289.77 196.548 291.12 197.328 292.1C198.128 293.08 199.238 293.57 200.658 293.57C201.778 293.57 202.678 293.29 203.358 292.73C204.058 292.17 204.598 291.27 204.978 290.03L207.618 291.59C206.958 293.13 206.078 294.31 204.978 295.13C203.878 295.95 202.438 296.36 200.658 296.36ZM213.775 275.06V288.62C213.775 290.3 214.065 291.54 214.645 292.34C215.225 293.14 216.255 293.54 217.735 293.54C219.215 293.54 220.245 293.14 220.825 292.34C221.405 291.54 221.695 290.3 221.695 288.62V275.06H224.875V288.11C224.875 289.53 224.745 290.76 224.485 291.8C224.245 292.84 223.845 293.7 223.285 294.38C222.725 295.06 221.985 295.56 221.065 295.88C220.165 296.2 219.055 296.36 217.735 296.36C216.415 296.36 215.295 296.2 214.375 295.88C213.475 295.56 212.745 295.06 212.185 294.38C211.625 293.7 211.215 292.84 210.955 291.8C210.715 290.76 210.595 289.53 210.595 288.11V275.06H213.775ZM232.529 296H229.349V275.06H237.629C239.429 275.06 240.779 275.6 241.679 276.68C242.599 277.74 243.059 279.27 243.059 281.27C243.059 282.89 242.759 284.2 242.159 285.2C241.559 286.2 240.659 286.87 239.459 287.21L243.449 296H239.909L236.279 287.45H232.529V296ZM237.359 284.78C238.119 284.78 238.689 284.59 239.069 284.21C239.469 283.81 239.669 283.17 239.669 282.29V280.34C239.669 279.46 239.469 278.83 239.069 278.45C238.689 278.05 238.119 277.85 237.359 277.85H232.529V284.78H237.359ZM246.293 296V293.45H248.843V277.61H246.293V275.06H254.573V277.61H252.023V293.45H254.573V296H246.293ZM265.492 277.85V296H262.312V277.85H256.762V275.06H271.042V277.85H265.492ZM279.111 296V287.9L272.631 275.06H276.201L280.551 284.42H280.941L285.231 275.06H288.741L282.291 287.9V296H279.111Z" fill="white"/>
<path d="M46.9136 320.38H46.7536C46.5669 320.967 46.2403 321.427 45.7736 321.76C45.3203 322.08 44.7269 322.24 43.9936 322.24C43.0469 322.24 42.3136 321.94 41.7936 321.34C41.2869 320.727 41.0336 319.813 41.0336 318.6V311.76H42.1336V318.54C42.1336 319.407 42.3203 320.08 42.6936 320.56C43.0669 321.027 43.6336 321.26 44.3936 321.26C44.7403 321.26 45.0669 321.207 45.3736 321.1C45.6803 320.993 45.9469 320.84 46.1736 320.64C46.4003 320.427 46.5803 320.173 46.7136 319.88C46.8469 319.573 46.9136 319.233 46.9136 318.86V311.76H48.0136V322H46.9136V320.38ZM55.2498 322V311.76H56.3498V313.38H56.5098C56.6965 312.793 57.0165 312.34 57.4698 312.02C57.9365 311.687 58.5365 311.52 59.2698 311.52C60.2032 311.52 60.9298 311.827 61.4498 312.44C61.9698 313.04 62.2298 313.947 62.2298 315.16V322H61.1298V315.22C61.1298 314.353 60.9432 313.687 60.5698 313.22C60.1965 312.74 59.6298 312.5 58.8698 312.5C58.5232 312.5 58.1965 312.553 57.8898 312.66C57.5832 312.767 57.3165 312.927 57.0898 313.14C56.8632 313.34 56.6832 313.593 56.5498 313.9C56.4165 314.193 56.3498 314.527 56.3498 314.9V322H55.2498ZM69.8461 312.72H68.2661V311.76H69.8461V308.6C69.8461 308.107 69.9528 307.753 70.1661 307.54C70.3928 307.313 70.7528 307.2 71.2461 307.2H72.9461V308.16H70.9461V311.76H72.9461V312.72H70.9461V322H69.8461V312.72ZM90.4898 322.24C89.2365 322.24 88.2565 321.82 87.5498 320.98C86.8565 320.14 86.5098 318.773 86.5098 316.88C86.5098 314.987 86.8565 313.62 87.5498 312.78C88.2565 311.94 89.2365 311.52 90.4898 311.52C91.3698 311.52 92.0832 311.72 92.6298 312.12C93.1898 312.52 93.6032 313.053 93.8698 313.72L92.9498 314.18C92.7365 313.62 92.4365 313.2 92.0498 312.92C91.6632 312.64 91.1432 312.5 90.4898 312.5C89.5565 312.5 88.8565 312.8 88.3898 313.4C87.9232 313.987 87.6898 314.847 87.6898 315.98V317.78C87.6898 318.913 87.9232 319.78 88.3898 320.38C88.8565 320.967 89.5565 321.26 90.4898 321.26C91.1698 321.26 91.7232 321.113 92.1498 320.82C92.5765 320.527 92.9165 320.087 93.1698 319.5L93.9898 320.06C93.6832 320.727 93.2432 321.26 92.6698 321.66C92.0965 322.047 91.3698 322.24 90.4898 322.24ZM105.735 311.76H106.815L102.575 325.02C102.455 325.407 102.308 325.667 102.135 325.8C101.961 325.933 101.668 326 101.255 326H99.9147V325.04H101.575L102.335 322.48L98.9147 311.76H100.015L101.795 317.44L102.795 321.04H102.955L103.955 317.44L105.735 311.76ZM112.887 307.2H113.987V313.38H114.167C114.353 312.753 114.68 312.287 115.147 311.98C115.613 311.673 116.187 311.52 116.867 311.52C118.107 311.52 119.047 311.98 119.687 312.9C120.327 313.807 120.647 315.133 120.647 316.88C120.647 318.627 120.327 319.96 119.687 320.88C119.047 321.787 118.107 322.24 116.867 322.24C116.187 322.24 115.613 322.087 115.147 321.78C114.68 321.473 114.353 321.007 114.167 320.38H113.987V322H112.887V307.2ZM116.587 321.26C117.52 321.26 118.233 320.953 118.727 320.34C119.22 319.727 119.467 318.873 119.467 317.78V315.98C119.467 314.887 119.22 314.033 118.727 313.42C118.233 312.807 117.52 312.5 116.587 312.5C116.227 312.5 115.887 312.553 115.567 312.66C115.26 312.767 114.987 312.92 114.747 313.12C114.507 313.32 114.32 313.56 114.187 313.84C114.053 314.12 113.987 314.433 113.987 314.78V318.98C113.987 319.327 114.053 319.64 114.187 319.92C114.32 320.2 114.507 320.44 114.747 320.64C114.987 320.84 115.26 320.993 115.567 321.1C115.887 321.207 116.227 321.26 116.587 321.26ZM130.558 322.24C129.958 322.24 129.405 322.14 128.898 321.94C128.405 321.727 127.978 321.407 127.618 320.98C127.258 320.54 126.978 319.987 126.778 319.32C126.591 318.64 126.498 317.827 126.498 316.88C126.498 315.933 126.591 315.127 126.778 314.46C126.978 313.78 127.258 313.227 127.618 312.8C127.978 312.36 128.405 312.04 128.898 311.84C129.405 311.627 129.958 311.52 130.558 311.52C131.771 311.52 132.718 311.94 133.398 312.78C134.091 313.62 134.438 314.953 134.438 316.78V317.08H127.678V317.78C127.678 318.913 127.925 319.78 128.418 320.38C128.925 320.967 129.638 321.26 130.558 321.26C131.318 321.26 131.925 321.093 132.378 320.76C132.845 320.413 133.211 319.9 133.478 319.22L134.238 319.74C133.945 320.527 133.498 321.14 132.898 321.58C132.311 322.02 131.531 322.24 130.558 322.24ZM130.558 312.46C129.638 312.46 128.925 312.767 128.418 313.38C127.925 313.98 127.678 314.847 127.678 315.98V316.24H133.258V315.98C133.258 314.847 133.031 313.98 132.578 313.38C132.138 312.767 131.465 312.46 130.558 312.46ZM141.023 322V311.76H142.123V313.62H142.283C142.47 313.047 142.783 312.593 143.223 312.26C143.663 311.927 144.223 311.76 144.903 311.76H145.543V312.84H144.623C143.89 312.84 143.29 313.04 142.823 313.44C142.357 313.84 142.123 314.393 142.123 315.1V322H141.023ZM154.128 322.24C153.328 322.24 152.641 322.087 152.068 321.78C151.495 321.46 150.995 320.98 150.568 320.34L151.348 319.7C151.721 320.26 152.128 320.667 152.568 320.92C153.008 321.16 153.528 321.28 154.128 321.28C154.808 321.28 155.348 321.113 155.748 320.78C156.148 320.447 156.348 319.96 156.348 319.32C156.348 318.76 156.215 318.327 155.948 318.02C155.681 317.7 155.201 317.48 154.508 317.36L153.708 317.22C152.775 317.06 152.068 316.767 151.588 316.34C151.121 315.9 150.888 315.24 150.888 314.36C150.888 313.387 151.181 312.673 151.768 312.22C152.355 311.753 153.115 311.52 154.048 311.52C154.755 311.52 155.368 311.647 155.888 311.9C156.408 312.14 156.861 312.527 157.248 313.06L156.528 313.72C155.915 312.893 155.095 312.48 154.068 312.48C153.388 312.48 152.868 312.633 152.508 312.94C152.148 313.247 151.968 313.707 151.968 314.32C151.968 314.92 152.115 315.36 152.408 315.64C152.701 315.92 153.188 316.12 153.868 316.24L154.648 316.38C155.621 316.553 156.328 316.86 156.768 317.3C157.208 317.74 157.428 318.38 157.428 319.22C157.428 320.18 157.141 320.927 156.568 321.46C155.995 321.98 155.181 322.24 154.128 322.24ZM167.402 322.24C166.802 322.24 166.249 322.14 165.742 321.94C165.249 321.727 164.822 321.407 164.462 320.98C164.102 320.54 163.822 319.987 163.622 319.32C163.435 318.64 163.342 317.827 163.342 316.88C163.342 315.933 163.435 315.127 163.622 314.46C163.822 313.78 164.102 313.227 164.462 312.8C164.822 312.36 165.249 312.04 165.742 311.84C166.249 311.627 166.802 311.52 167.402 311.52C168.615 311.52 169.562 311.94 170.242 312.78C170.935 313.62 171.282 314.953 171.282 316.78V317.08H164.522V317.78C164.522 318.913 164.769 319.78 165.262 320.38C165.769 320.967 166.482 321.26 167.402 321.26C168.162 321.26 168.769 321.093 169.222 320.76C169.689 320.413 170.055 319.9 170.322 319.22L171.082 319.74C170.789 320.527 170.342 321.14 169.742 321.58C169.155 322.02 168.375 322.24 167.402 322.24ZM167.402 312.46C166.482 312.46 165.769 312.767 165.262 313.38C164.769 313.98 164.522 314.847 164.522 315.98V316.24H170.102V315.98C170.102 314.847 169.875 313.98 169.422 313.38C168.982 312.767 168.309 312.46 167.402 312.46ZM181.107 322.24C179.854 322.24 178.874 321.82 178.167 320.98C177.474 320.14 177.127 318.773 177.127 316.88C177.127 314.987 177.474 313.62 178.167 312.78C178.874 311.94 179.854 311.52 181.107 311.52C181.987 311.52 182.7 311.72 183.247 312.12C183.807 312.52 184.22 313.053 184.487 313.72L183.567 314.18C183.354 313.62 183.054 313.2 182.667 312.92C182.28 312.64 181.76 312.5 181.107 312.5C180.174 312.5 179.474 312.8 179.007 313.4C178.54 313.987 178.307 314.847 178.307 315.98V317.78C178.307 318.913 178.54 319.78 179.007 320.38C179.474 320.967 180.174 321.26 181.107 321.26C181.787 321.26 182.34 321.113 182.767 320.82C183.194 320.527 183.534 320.087 183.787 319.5L184.607 320.06C184.3 320.727 183.86 321.26 183.287 321.66C182.714 322.047 181.987 322.24 181.107 322.24ZM196.652 320.38H196.492C196.305 320.967 195.979 321.427 195.512 321.76C195.059 322.08 194.465 322.24 193.732 322.24C192.785 322.24 192.052 321.94 191.532 321.34C191.025 320.727 190.772 319.813 190.772 318.6V311.76H191.872V318.54C191.872 319.407 192.059 320.08 192.432 320.56C192.805 321.027 193.372 321.26 194.132 321.26C194.479 321.26 194.805 321.207 195.112 321.1C195.419 320.993 195.685 320.84 195.912 320.64C196.139 320.427 196.319 320.173 196.452 319.88C196.585 319.573 196.652 319.233 196.652 318.86V311.76H197.752V322H196.652V320.38ZM204.988 322V311.76H206.088V313.62H206.248C206.435 313.047 206.748 312.593 207.188 312.26C207.628 311.927 208.188 311.76 208.868 311.76H209.508V312.84H208.588C207.855 312.84 207.255 313.04 206.788 313.44C206.321 313.84 206.088 314.393 206.088 315.1V322H204.988ZM216.013 308.94C215.746 308.94 215.553 308.88 215.433 308.76C215.326 308.64 215.273 308.48 215.273 308.28V308C215.273 307.8 215.326 307.64 215.433 307.52C215.553 307.4 215.746 307.34 216.013 307.34C216.28 307.34 216.466 307.4 216.573 307.52C216.693 307.64 216.753 307.8 216.753 308V308.28C216.753 308.48 216.693 308.64 216.573 308.76C216.466 308.88 216.28 308.94 216.013 308.94ZM215.453 311.76H216.553V322H215.453V311.76ZM225.487 322C225.074 322 224.774 321.913 224.587 321.74C224.4 321.553 224.307 321.253 224.307 320.84V312.72H222.727V311.76H223.787C224.04 311.76 224.207 311.7 224.287 311.58C224.367 311.447 224.407 311.253 224.407 311V308.9H225.407V311.76H227.447V312.72H225.407V321.04H227.347V322H225.487ZM239.578 311.76H240.658L236.418 325.02C236.298 325.407 236.152 325.667 235.978 325.8C235.805 325.933 235.512 326 235.098 326H233.758V325.04H235.418L236.178 322.48L232.758 311.76H233.858L235.638 317.44L236.638 321.04H236.798L237.798 317.44L239.578 311.76ZM258.209 322.24C256.955 322.24 255.975 321.82 255.269 320.98C254.575 320.14 254.229 318.773 254.229 316.88C254.229 314.987 254.575 313.62 255.269 312.78C255.975 311.94 256.955 311.52 258.209 311.52C259.089 311.52 259.802 311.72 260.349 312.12C260.909 312.52 261.322 313.053 261.589 313.72L260.669 314.18C260.455 313.62 260.155 313.2 259.769 312.92C259.382 312.64 258.862 312.5 258.209 312.5C257.275 312.5 256.575 312.8 256.109 313.4C255.642 313.987 255.409 314.847 255.409 315.98V317.78C255.409 318.913 255.642 319.78 256.109 320.38C256.575 320.967 257.275 321.26 258.209 321.26C258.889 321.26 259.442 321.113 259.869 320.82C260.295 320.527 260.635 320.087 260.889 319.5L261.709 320.06C261.402 320.727 260.962 321.26 260.389 321.66C259.815 322.047 259.089 322.24 258.209 322.24ZM269.093 322C268.68 322 268.38 321.913 268.193 321.74C268.02 321.553 267.933 321.253 267.933 320.84V307.2H269.033V321.04H270.413V322H269.093ZM282.539 320.38H282.379C282.192 320.967 281.865 321.427 281.399 321.76C280.945 322.08 280.352 322.24 279.619 322.24C278.672 322.24 277.939 321.94 277.419 321.34C276.912 320.727 276.659 319.813 276.659 318.6V311.76H277.759V318.54C277.759 319.407 277.945 320.08 278.319 320.56C278.692 321.027 279.259 321.26 280.019 321.26C280.365 321.26 280.692 321.207 280.999 321.1C281.305 320.993 281.572 320.84 281.799 320.64C282.025 320.427 282.205 320.173 282.339 319.88C282.472 319.573 282.539 319.233 282.539 318.86V311.76H283.639V322H282.539V320.38ZM290.875 307.2H291.975V313.38H292.155C292.342 312.753 292.668 312.287 293.135 311.98C293.602 311.673 294.175 311.52 294.855 311.52C296.095 311.52 297.035 311.98 297.675 312.9C298.315 313.807 298.635 315.133 298.635 316.88C298.635 318.627 298.315 319.96 297.675 320.88C297.035 321.787 296.095 322.24 294.855 322.24C294.175 322.24 293.602 322.087 293.135 321.78C292.668 321.473 292.342 321.007 292.155 320.38H291.975V322H290.875V307.2ZM294.575 321.26C295.508 321.26 296.222 320.953 296.715 320.34C297.208 319.727 297.455 318.873 297.455 317.78V315.98C297.455 314.887 297.208 314.033 296.715 313.42C296.222 312.807 295.508 312.5 294.575 312.5C294.215 312.5 293.875 312.553 293.555 312.66C293.248 312.767 292.975 312.92 292.735 313.12C292.495 313.32 292.308 313.56 292.175 313.84C292.042 314.12 291.975 314.433 291.975 314.78V318.98C291.975 319.327 292.042 319.64 292.175 319.92C292.308 320.2 292.495 320.44 292.735 320.64C292.975 320.84 293.248 320.993 293.555 321.1C293.875 321.207 294.215 321.26 294.575 321.26Z" fill="white"/>
<mask id="mask0" mask-type="alpha" maskUnits="userSpaceOnUse" x="0" y="0" width="136" height="229">
<path fill-rule="evenodd" clip-rule="evenodd" d="M18.2796 11.4054C18.2796 31.0663 23.2652 49.2063 35.6206 74.407C39.7391 82.771 46.7839 95.154 51.2275 101.78C54.5603 106.831 57.3443 111.21 58.3909 113.084C58.7397 113.708 58.8955 114.054 58.8142 114.054C58.5094 114.054 56.871 113.1 55.1492 111.906C55.0344 111.827 54.9193 111.746 54.8041 111.665C41.1481 102.16 27.9899 86.8342 14.0227 64.1584C13.7028 63.6391 13.3825 63.1159 13.0618 62.5889C11.3818 59.8283 9.68976 56.9615 7.98339 53.9858C3.97328 47.0339 0.396695 41.4941 0.179932 41.7114C-0.7955 42.689 2.34756 55.072 5.92415 64.305C13.5915 84.5077 26.1976 106.69 39.1537 124.257C48.907 137.481 58.8588 148.089 67.0512 153.268L67.0513 153.268C67.7371 153.695 68.3265 154.065 68.8239 154.384L68.8967 154.431C69.9038 155.079 70.5211 155.514 70.7881 155.803C70.8197 155.837 70.8465 155.869 70.8684 155.899C71.2043 156.363 70.394 156.366 68.6769 156.309C58.5975 156.309 45.2666 148.379 29.4429 133.172C22.7233 126.655 17.1958 121.767 17.1958 122.201C17.1958 124.156 26.0831 141.645 30.3099 147.836C44.2911 168.692 73.7708 192.698 113.113 215.617C119.074 219.093 126.553 223.655 129.696 225.719C132.381 227.483 134.83 228.77 135.688 228.972C108.73 195.383 90.2974 154.592 83.6953 109.92C66.8911 90.5578 50.203 66.2918 38.1383 44.4117C32.6837 34.5197 28.1742 25.1153 25.0261 16.8723C23.4802 12.8243 22.2626 9.05647 21.4227 5.64841C20.8537 3.36732 20.1627 1.33064 19.6242 0.45486C19.4447 0.162935 19.2821 0 19.1467 0C18.7131 0 18.2796 5.10529 18.2796 11.4054Z" fill="#00FFD1"/>
</mask>
<g mask="url(#mask0)">
<path d="M18.2796 11.4054C18.2796 31.0663 23.2652 49.2063 35.6206 74.407C39.7391 82.771 46.7839 95.154 51.2275 101.78C55.6712 108.515 59.1394 114.054 58.8142 114.054C58.4891 114.054 56.6466 112.968 54.8041 111.665C39.1972 100.802 24.2406 82.3365 7.98338 53.9858C3.97328 47.0339 0.39669 41.4941 0.17993 41.7113C-0.795498 42.689 2.34756 55.072 5.92414 64.305C19.3634 99.7162 47.9761 141.21 67.0512 153.268C71.9284 156.309 71.9284 156.418 68.6769 156.309C58.5975 156.309 45.2666 148.379 29.4429 133.172C22.7233 126.655 17.1958 121.767 17.1958 122.201C17.1958 124.156 26.0831 141.645 30.3099 147.836C44.2911 168.692 73.7708 192.698 113.113 215.617C119.074 219.093 126.553 223.655 129.696 225.719C132.839 227.783 135.657 229.195 135.982 228.978C136.198 228.652 134.464 224.416 132.08 219.636C122.976 201.062 117.449 185.963 110.295 159.785C102.709 132.195 101.3 129.153 88.8358 115.684C59.031 83.2055 28.1423 32.9129 21.4227 5.64841C20.664 2.60695 19.6886 -3.41237e-06 19.1467 -3.41237e-06C18.7131 -3.41237e-06 18.2796 5.10529 18.2796 11.4054Z" fill="url(#paint0_linear)"/>
<path fill-rule="evenodd" clip-rule="evenodd" d="M115.584 178.042C113.869 172.525 112.136 166.522 110.295 159.785C102.709 132.195 101.3 129.153 88.8359 115.684C59.031 83.2055 28.1423 32.9129 21.4227 5.64841C20.664 2.60696 19.6886 0 19.1467 0C18.7132 0 18.2796 5.10529 18.2796 11.4054C18.2796 31.0663 23.2652 49.2063 35.6206 74.407C39.7391 82.771 46.7839 95.154 51.2275 101.78C55.6712 108.515 59.1394 114.054 58.8142 114.054C58.4891 114.054 56.6466 112.968 54.8041 111.665C40.8353 101.943 27.3875 86.1291 13.0618 62.5888C16.9257 85.3714 26.0673 106.358 39.1847 124.246C39.1744 124.25 39.164 124.253 39.1537 124.257C48.9071 137.481 58.8588 148.089 67.0512 153.268C67.7497 153.703 68.3481 154.079 68.8513 154.402C68.8532 154.401 68.8551 154.401 68.8569 154.401C68.8702 154.411 68.8835 154.421 68.8967 154.431C70.0234 155.156 70.6621 155.615 70.8684 155.899C84.2297 165.677 99.3151 173.238 115.584 178.042Z" fill="url(#paint1_linear)"/>
<path fill-rule="evenodd" clip-rule="evenodd" d="M111.705 164.873C69.4178 140.725 40.3694 96.0448 38.1382 44.4117C51.4336 68.5234 70.3433 95.5325 88.8358 115.684C101.3 129.153 102.709 132.195 110.295 159.785C110.772 161.529 111.241 163.223 111.705 164.873Z" fill="url(#paint2_linear)"/>
</g>
<mask id="mask1" mask-type="alpha" maskUnits="userSpaceOnUse" x="202" y="0" width="136" height="229">
<path fill-rule="evenodd" clip-rule="evenodd" d="M319.72 11.4054C319.72 31.0663 314.735 49.2063 302.379 74.407C298.261 82.771 291.216 95.154 286.772 101.78C283.44 106.831 280.656 111.21 279.609 113.084C279.26 113.708 279.104 114.054 279.186 114.054C279.491 114.054 281.129 113.1 282.851 111.906C282.966 111.827 283.081 111.746 283.196 111.665C296.852 102.16 310.01 86.8342 323.977 64.1584C324.297 63.6391 324.617 63.1159 324.938 62.5889C326.618 59.8283 328.31 56.9615 330.017 53.9858C334.027 47.0339 337.603 41.4941 337.82 41.7114C338.796 42.689 335.652 55.072 332.076 64.305C324.409 84.5077 311.802 106.69 298.846 124.257C289.093 137.481 279.141 148.089 270.949 153.268L270.949 153.268C270.263 153.695 269.674 154.065 269.176 154.384L269.103 154.431C268.096 155.079 267.479 155.514 267.212 155.803C267.18 155.837 267.154 155.869 267.132 155.899C266.796 156.363 267.606 156.366 269.323 156.309C279.403 156.309 292.733 148.379 308.557 133.172C315.277 126.655 320.804 121.767 320.804 122.201C320.804 124.156 311.917 141.645 307.69 147.836C293.709 168.692 264.229 192.698 224.887 215.617C218.926 219.093 211.447 223.655 208.304 225.719C205.619 227.483 203.17 228.77 202.312 228.972C229.27 195.383 247.703 154.592 254.305 109.92C271.109 90.5578 287.797 66.2918 299.862 44.4117C305.316 34.5197 309.826 25.1153 312.974 16.8723C314.52 12.8243 315.737 9.05647 316.577 5.64841C317.146 3.36732 317.837 1.33064 318.376 0.45486C318.555 0.162935 318.718 0 318.853 0C319.287 0 319.72 5.10529 319.72 11.4054Z" fill="#00FFD1"/>
</mask>
<g mask="url(#mask1)">
<path d="M319.72 11.4054C319.72 31.0663 314.735 49.2063 302.379 74.407C298.261 82.771 291.216 95.154 286.772 101.78C282.329 108.515 278.861 114.054 279.186 114.054C279.511 114.054 281.353 112.968 283.196 111.665C298.803 100.802 313.759 82.3365 330.017 53.9858C334.027 47.0339 337.603 41.4941 337.82 41.7113C338.795 42.689 335.652 55.072 332.076 64.305C318.637 99.7162 290.024 141.21 270.949 153.268C266.072 156.309 266.072 156.418 269.323 156.309C279.403 156.309 292.733 148.379 308.557 133.172C315.277 126.655 320.804 121.767 320.804 122.201C320.804 124.156 311.917 141.645 307.69 147.836C293.709 168.692 264.229 192.698 224.887 215.617C218.926 219.093 211.447 223.655 208.304 225.719C205.161 227.783 202.343 229.195 202.018 228.978C201.802 228.652 203.536 224.416 205.92 219.636C215.024 201.062 220.551 185.963 227.705 159.785C235.291 132.195 236.7 129.153 249.164 115.684C278.969 83.2055 309.858 32.9129 316.577 5.64841C317.336 2.60695 318.311 -3.41237e-06 318.853 -3.41237e-06C319.287 -3.41237e-06 319.72 5.10529 319.72 11.4054Z" fill="url(#paint3_linear)"/>
<path fill-rule="evenodd" clip-rule="evenodd" d="M222.416 178.042C224.131 172.525 225.864 166.522 227.705 159.785C235.291 132.195 236.7 129.153 249.164 115.684C278.969 83.2055 309.858 32.9129 316.577 5.64841C317.336 2.60696 318.311 0 318.853 0C319.287 0 319.72 5.10529 319.72 11.4054C319.72 31.0663 314.735 49.2063 302.379 74.407C298.261 82.771 291.216 95.154 286.772 101.78C282.329 108.515 278.861 114.054 279.186 114.054C279.511 114.054 281.353 112.968 283.196 111.665C297.165 101.943 310.613 86.1291 324.938 62.5888C321.074 85.3714 311.933 106.358 298.815 124.246C298.826 124.25 298.836 124.253 298.846 124.257C289.093 137.481 279.141 148.089 270.949 153.268C270.25 153.703 269.652 154.079 269.149 154.402C269.147 154.401 269.145 154.401 269.143 154.401C269.13 154.411 269.117 154.421 269.103 154.431C267.977 155.156 267.338 155.615 267.132 155.899C253.77 165.677 238.685 173.238 222.416 178.042Z" fill="url(#paint4_linear)"/>
<path fill-rule="evenodd" clip-rule="evenodd" d="M226.295 164.873C268.582 140.725 297.631 96.0448 299.862 44.4117C286.566 68.5234 267.657 95.5325 249.164 115.684C236.7 129.153 235.291 132.195 227.705 159.785C227.228 161.529 226.759 163.223 226.295 164.873Z" fill="url(#paint5_linear)"/>
</g>
<path fill-rule="evenodd" clip-rule="evenodd" d="M169 62C151.951 70.1255 132.88 74.6721 112.75 74.6721C106.423 74.6721 100.2 74.2229 94.1121 73.3546C94.0376 75.6658 94 77.9863 94 80.3156C94 145.19 123.138 203.236 169 242C214.862 203.236 244 145.19 244 80.3156C244 77.9863 243.962 75.6658 243.888 73.3546C237.8 74.2229 231.577 74.6721 225.25 74.6721C205.12 74.6721 186.049 70.1255 169 62ZM169.625 154.935C183.777 154.935 195.25 143.425 195.25 129.226C195.25 115.027 183.777 103.517 169.625 103.517C155.473 103.517 144 115.027 144 129.226C144 143.425 155.473 154.935 169.625 154.935Z" fill="white"/>
<defs>
<linearGradient id="paint0_linear" x1="68" y1="229" x2="68" y2="-3.41237e-06" gradientUnits="userSpaceOnUse">
<stop stop-color="#004B8D"/>
<stop offset="1" stop-color="#004B8D" stop-opacity="0"/>
</linearGradient>
<linearGradient id="paint1_linear" x1="64.3226" y1="0" x2="64.3226" y2="178.042" gradientUnits="userSpaceOnUse">
<stop stop-color="#004B8D"/>
<stop offset="1" stop-color="#004B8D" stop-opacity="0"/>
</linearGradient>
<linearGradient id="paint2_linear" x1="74.9214" y1="44.4117" x2="74.9214" y2="164.873" gradientUnits="userSpaceOnUse">
<stop stop-color="#004B8D"/>
<stop offset="1" stop-color="#004B8D" stop-opacity="0"/>
</linearGradient>
<linearGradient id="paint3_linear" x1="270" y1="229" x2="270" y2="-3.41237e-06" gradientUnits="userSpaceOnUse">
<stop stop-color="#004B8D"/>
<stop offset="1" stop-color="#004B8D" stop-opacity="0"/>
</linearGradient>
<linearGradient id="paint4_linear" x1="273.677" y1="0" x2="273.677" y2="178.042" gradientUnits="userSpaceOnUse">
<stop stop-color="#004B8D"/>
<stop offset="1" stop-color="#004B8D" stop-opacity="0"/>
</linearGradient>
<linearGradient id="paint5_linear" x1="263.079" y1="44.4117" x2="263.079" y2="164.873" gradientUnits="userSpaceOnUse">
<stop stop-color="#004B8D"/>
<stop offset="1" stop-color="#004B8D" stop-opacity="0"/>
</linearGradient>
</defs>
</svg>
